<?xml version="1.0" encoding="UTF-8"?>
<!DOCTYPE svg PUBLIC "-//W3C//DTD SVG 1.1//EN" "http://www.w3.org/Graphics/SVG/1.1/DTD/svg11.dtd">
<svg xmlns="http://www.w3.org/2000/svg" version="1.1" width="704px" height="800px" style="shape-rendering:geometricPrecision; text-rendering:geometricPrecision; image-rendering:optimizeQuality; fill-rule:evenodd; clip-rule:evenodd" xmlns:xlink="http://www.w3.org/1999/xlink">
<g><path style="opacity:0.977" fill="#000000" d="M 201.5,-0.5 C 210.167,-0.5 218.833,-0.5 227.5,-0.5C 237.988,1.83832 246.821,7.17165 254,15.5C 267.333,32.1667 280.667,48.8333 294,65.5C 294.667,66.1667 294.667,66.8333 294,67.5C 196.756,84.5155 116.589,130.516 53.5,205.5C 44.1862,183.399 35.3528,161.065 27,138.5C 25.2146,121.19 29.8813,105.857 41,92.5C 62.2327,68.8121 86.7327,49.3121 114.5,34C 134.852,22.1571 156.185,12.4904 178.5,5C 186.194,2.69968 193.86,0.866349 201.5,-0.5 Z"/></g>
<g><path style="opacity:0.977" fill="#000000" d="M 475.5,-0.5 C 484.167,-0.5 492.833,-0.5 501.5,-0.5C 516.107,2.24035 530.44,6.40701 544.5,12C 579.633,27.3844 611.966,47.0511 641.5,71C 656.585,83.399 667.752,98.5656 675,116.5C 676.467,123.777 676.801,131.111 676,138.5C 667.647,161.065 658.814,183.399 649.5,205.5C 586.411,130.516 506.244,84.5155 409,67.5C 408.333,66.8333 408.333,66.1667 409,65.5C 424.57,45.5388 440.737,26.0388 457.5,7C 463.149,3.40228 469.149,0.902276 475.5,-0.5 Z"/></g>
<g><path style="opacity:0.97" fill="#000000" d="M 703.5,419.5 C 703.5,438.167 703.5,456.833 703.5,475.5C 690.994,593.05 635.328,683.884 536.5,748C 488.075,777.309 435.742,794.475 379.5,799.5C 360.833,799.5 342.167,799.5 323.5,799.5C 203.73,786.391 111.897,729.058 48,627.5C 20.4815,580.445 4.31487,529.778 -0.5,475.5C -0.5,456.833 -0.5,438.167 -0.5,419.5C 11.9021,303.695 66.2354,213.529 162.5,149C 263.918,88.0628 370.252,78.0628 481.5,119C 590.193,165.031 660.693,244.864 693,358.5C 697.885,378.739 701.385,399.073 703.5,419.5 Z M 338.5,143.5 C 455.67,142.988 546.17,191.321 610,288.5C 661.695,377.392 668.695,469.726 631,565.5C 584.971,665.51 507.804,726.01 399.5,747C 292.912,760.808 202.412,729.308 128,652.5C 58.0352,571.98 34.3685,479.314 57,374.5C 85.8585,270.977 150.359,199.811 250.5,161C 279.168,151.17 308.502,145.337 338.5,143.5 Z"/></g>
<g><path style="opacity:0.968" fill="#000000" d="M 345.5,190.5 C 361.852,188.744 372.018,195.744 376,211.5C 376.667,291.167 376.667,370.833 376,450.5C 374.129,460.705 368.296,467.538 358.5,471C 276.5,471.667 194.5,471.667 112.5,471C 96.8743,464.246 91.7076,452.746 97,436.5C 100.672,429.242 106.505,424.742 114.5,423C 185.166,422.5 255.833,422.333 326.5,422.5C 326.333,352.166 326.5,281.833 327,211.5C 329.141,200.864 335.308,193.864 345.5,190.5 Z"/></g>
</svg>
